<svg width="64" height="33" viewBox="0 0 64 33" fill="none" xmlns="http://www.w3.org/2000/svg">
<path d="M35 13L38.3399 13.4966C38.3884 13.5041 41.6388 14.0056 45.5097 15.8029C49.4394 17.6273 53.9089 20.7722 56.4441 22.7243C58.9794 24.6764 59.445 25.3403 59.9021 26.1016C60.8416 27.6665 61.3035 28.7753 61.4596 29.2328C61.8678 30.3626 62.0559 31.2108 62.1349 31.53C62.1199 31.5316 62.0579 31.4269 61.9939 31.3189M63 27.4565C62.6399 29.6441 62.6344 31.7409 62.5408 31.9172C62.4951 32.0033 62.3851 32.0236 62.2751 31.9717C61.6994 31.7003 61.3505 31.1087 60.7406 30.6677C59.4694 29.7311 58.9982 29.4484 58.8105 29.325C58.716 29.2716 58.6229 29.2366 58.621 29.3065" stroke="black" stroke-linecap="round"/>
<path d="M3.28 6.18C3.28 6.24667 3.27 6.31667 3.25 6.39C3.23 6.45667 3.21 6.51333 3.19 6.56C3.17667 6.58 3.11333 6.65 3 6.77C2.89333 6.88333 2.75667 7.00333 2.59 7.13C2.43 7.25667 2.24667 7.37333 2.04 7.48C1.84 7.58 1.64667 7.63 1.46 7.63C1.34667 7.63 1.23 7.61 1.11 7.57C0.996667 7.53 0.89 7.46667 0.79 7.38C0.69 7.28667 0.606667 7.17333 0.54 7.04C0.48 6.90667 0.45 6.74333 0.45 6.55C0.45 6.23 0.503333 5.94 0.61 5.68C0.716667 5.42 0.823333 5.21333 0.93 5.06C0.976667 4.98667 1.03667 4.91333 1.11 4.84C1.19 4.76 1.26667 4.69 1.34 4.63C1.41333 4.56333 1.48 4.51 1.54 4.47C1.60667 4.43 1.65333 4.41 1.68 4.41C1.74 4.41 1.79333 4.42667 1.84 4.46C1.89333 4.49333 1.92 4.52667 1.92 4.56C1.92 4.61333 1.90333 4.66 1.87 4.7C1.84333 4.73333 1.80333 4.77333 1.75 4.82C1.69667 4.86 1.63333 4.91667 1.56 4.99C1.48667 5.05667 1.41 5.14667 1.33 5.26C1.17 5.48 1.05 5.70667 0.97 5.94C0.896667 6.16667 0.86 6.36667 0.86 6.54C0.86 6.71333 0.923333 6.85333 1.05 6.96C1.18333 7.06 1.32 7.11 1.46 7.11C1.71333 7.11 1.93667 7.05333 2.13 6.94C2.33 6.82667 2.5 6.7 2.64 6.56C2.78 6.42 2.89333 6.29333 2.98 6.18C3.06667 6.06667 3.13 6.01 3.17 6.01C3.24333 6.01 3.28 6.06667 3.28 6.18ZM5.41164 7.71C5.41164 7.76333 5.39164 7.80333 5.35164 7.83C5.31164 7.85667 5.26497 7.87 5.21164 7.87C5.15164 7.87 5.08831 7.81333 5.02164 7.7C4.96164 7.58667 4.90164 7.44333 4.84164 7.27C4.78164 7.09667 4.72497 6.91 4.67164 6.71C4.61831 6.50333 4.57164 6.31333 4.53164 6.14C4.49164 5.96 4.45831 5.81 4.43164 5.69C4.41164 5.57 4.40164 5.50333 4.40164 5.49C4.40164 5.46333 4.38831 5.39333 4.36164 5.28C4.34164 5.16667 4.31164 4.99 4.27164 4.75C4.23831 4.51 4.19831 4.2 4.15164 3.82C4.11164 3.43333 4.06831 2.95667 4.02164 2.39C4.02164 2.33 4.03164 2.25333 4.05164 2.16C4.07164 2.06667 4.11831 2.02 4.19164 2.02C4.28497 2.02 4.35497 2.08333 4.40164 2.21C4.45497 2.33667 4.49497 2.49333 4.52164 2.68C4.55497 2.86667 4.57831 3.06333 4.59164 3.27C4.60497 3.47 4.62164 3.64667 4.64164 3.8C4.66831 4.01333 4.69164 4.20667 4.71164 4.38C4.73831 4.55333 4.76164 4.72667 4.78164 4.9C4.80831 5.06667 4.83831 5.24333 4.87164 5.43C4.91164 5.61667 4.95831 5.82333 5.01164 6.05L5.41164 7.71ZM6.78102 3.4C6.78102 3.41333 6.75768 3.44 6.71102 3.48C6.66435 3.52 6.60768 3.56333 6.54102 3.61C6.48102 3.65 6.41768 3.68667 6.35102 3.72C6.28435 3.75333 6.23102 3.77 6.19102 3.77C6.16435 3.77 6.12768 3.77 6.08102 3.77C6.04102 3.76333 5.99768 3.75 5.95102 3.73C5.91102 3.71 5.87435 3.68333 5.84102 3.65C5.80768 3.61 5.79102 3.56 5.79102 3.5C5.79102 3.40667 5.82435 3.32 5.89102 3.24C5.95768 3.15333 6.04435 3.11 6.15102 3.11C6.17102 3.11 6.21435 3.12 6.28102 3.14C6.35435 3.15333 6.42768 3.17333 6.50102 3.2C6.57435 3.22667 6.63768 3.25667 6.69102 3.29C6.75102 3.32333 6.78102 3.36 6.78102 3.4ZM7.11102 7.14C7.11102 7.18667 7.07435 7.22667 7.00102 7.26C6.93435 7.29333 6.88435 7.31 6.85102 7.31C6.78435 7.31 6.72435 7.26667 6.67102 7.18C6.61768 7.09333 6.57102 6.99333 6.53102 6.88C6.49102 6.76667 6.45768 6.66 6.43102 6.56C6.40435 6.45333 6.38435 6.38 6.37102 6.34C6.35102 6.27333 6.32435 6.19333 6.29102 6.1C6.25768 6.00667 6.22435 5.91667 6.19102 5.83C6.16435 5.74333 6.14102 5.66667 6.12102 5.6C6.10102 5.53333 6.09102 5.49667 6.09102 5.49C6.09102 5.39667 6.10768 5.31 6.14102 5.23C6.18102 5.15 6.22768 5.11 6.28102 5.11C6.34102 5.11 6.40435 5.15667 6.47102 5.25C6.53768 5.34333 6.60102 5.46333 6.66102 5.61C6.72768 5.75 6.78768 5.90667 6.84102 6.08C6.89435 6.24667 6.94102 6.40667 6.98102 6.56C7.02102 6.70667 7.05102 6.83667 7.07102 6.95C7.09768 7.05667 7.11102 7.12 7.11102 7.14ZM10.6238 6.18C10.6238 6.24667 10.6138 6.31667 10.5938 6.39C10.5738 6.45667 10.5538 6.51333 10.5338 6.56C10.5204 6.58 10.4571 6.65 10.3438 6.77C10.2371 6.88333 10.1004 7.00333 9.93375 7.13C9.77375 7.25667 9.59042 7.37333 9.38375 7.48C9.18375 7.58 8.99042 7.63 8.80375 7.63C8.69042 7.63 8.57375 7.61 8.45375 7.57C8.34042 7.53 8.23375 7.46667 8.13375 7.38C8.03375 7.28667 7.95042 7.17333 7.88375 7.04C7.82375 6.90667 7.79375 6.74333 7.79375 6.55C7.79375 6.23 7.84708 5.94 7.95375 5.68C8.06042 5.42 8.16708 5.21333 8.27375 5.06C8.32042 4.98667 8.38042 4.91333 8.45375 4.84C8.53375 4.76 8.61042 4.69 8.68375 4.63C8.75708 4.56333 8.82375 4.51 8.88375 4.47C8.95042 4.43 8.99708 4.41 9.02375 4.41C9.08375 4.41 9.13708 4.42667 9.18375 4.46C9.23708 4.49333 9.26375 4.52667 9.26375 4.56C9.26375 4.61333 9.24708 4.66 9.21375 4.7C9.18708 4.73333 9.14708 4.77333 9.09375 4.82C9.04042 4.86 8.97708 4.91667 8.90375 4.99C8.83042 5.05667 8.75375 5.14667 8.67375 5.26C8.51375 5.48 8.39375 5.70667 8.31375 5.94C8.24042 6.16667 8.20375 6.36667 8.20375 6.54C8.20375 6.71333 8.26708 6.85333 8.39375 6.96C8.52708 7.06 8.66375 7.11 8.80375 7.11C9.05708 7.11 9.28042 7.05333 9.47375 6.94C9.67375 6.82667 9.84375 6.7 9.98375 6.56C10.1238 6.42 10.2371 6.29333 10.3238 6.18C10.4104 6.06667 10.4738 6.01 10.5138 6.01C10.5871 6.01 10.6238 6.06667 10.6238 6.18ZM14.9754 6.93C14.9754 6.98333 14.9687 7.02333 14.9554 7.05C14.9421 7.07 14.9087 7.08667 14.8554 7.1C14.7954 7.12 14.7187 7.14333 14.6254 7.17C14.5387 7.19 14.4421 7.21333 14.3354 7.24C14.2287 7.26 14.1187 7.28 14.0054 7.3C13.8987 7.31333 13.7987 7.32 13.7054 7.32C13.5921 7.32 13.4654 7.31333 13.3254 7.3C13.1921 7.28667 13.0621 7.26667 12.9354 7.24C12.8087 7.20667 12.6921 7.17333 12.5854 7.14C12.4854 7.1 12.4121 7.05333 12.3654 7C12.3987 7.14 12.4287 7.28 12.4554 7.42C12.4821 7.56 12.5021 7.7 12.5154 7.84C12.5154 7.87333 12.5054 7.90333 12.4854 7.93C12.4721 7.95 12.4287 7.96 12.3554 7.96C12.3221 7.96 12.2887 7.95333 12.2554 7.94C12.2287 7.92 12.2054 7.88333 12.1854 7.83C12.1254 7.69667 12.0754 7.57333 12.0354 7.46C11.9954 7.34 11.9587 7.22 11.9254 7.1C11.8987 6.98 11.8687 6.85333 11.8354 6.72C11.8021 6.58667 11.7621 6.44 11.7154 6.28C11.6421 6.02 11.5654 5.74333 11.4854 5.45C11.4054 5.15 11.3321 4.86667 11.2654 4.6C11.1987 4.32667 11.1454 4.08667 11.1054 3.88C11.0654 3.66667 11.0454 3.51667 11.0454 3.43C11.0454 3.39 11.0454 3.33667 11.0454 3.27C11.0521 3.20333 11.0621 3.14 11.0754 3.08C11.0954 3.01333 11.1187 2.96 11.1454 2.92C11.1787 2.87333 11.2221 2.85 11.2754 2.85C11.3087 2.85 11.3421 2.90333 11.3754 3.01C11.4154 3.11 11.4487 3.22333 11.4754 3.35C11.5087 3.47 11.5354 3.58667 11.5554 3.7C11.5821 3.80667 11.5954 3.86333 11.5954 3.87C11.6221 4.01667 11.6521 4.18 11.6854 4.36C11.7254 4.53333 11.7654 4.71 11.8054 4.89C11.8454 5.07 11.8887 5.24333 11.9354 5.41C11.9821 5.57 12.0321 5.70667 12.0854 5.82C12.0921 5.75333 12.1154 5.65667 12.1554 5.53C12.1954 5.40333 12.2487 5.26667 12.3154 5.12C12.3821 4.97333 12.4554 4.82333 12.5354 4.67C12.6221 4.51 12.7087 4.36667 12.7954 4.24C12.8887 4.11333 12.9787 4.01 13.0654 3.93C13.1587 3.85 13.2454 3.81 13.3254 3.81C13.4521 3.81 13.5387 3.82667 13.5854 3.86C13.6387 3.89333 13.6654 3.93333 13.6654 3.98C13.6654 4.02 13.6087 4.1 13.4954 4.22C13.3821 4.33333 13.2554 4.48667 13.1154 4.68C12.9754 4.86667 12.8487 5.09 12.7354 5.35C12.6221 5.60333 12.5654 5.88667 12.5654 6.2C12.5654 6.31333 12.5954 6.41333 12.6554 6.5C12.7221 6.58 12.8054 6.64667 12.9054 6.7C13.0121 6.75333 13.1287 6.79667 13.2554 6.83C13.3887 6.85667 13.5187 6.87 13.6454 6.87C13.7587 6.87 13.8821 6.86667 14.0154 6.86C14.1487 6.85333 14.2721 6.84667 14.3854 6.84C14.5054 6.82667 14.6054 6.81667 14.6854 6.81C14.7721 6.80333 14.8254 6.8 14.8454 6.8C14.8787 6.8 14.9087 6.81 14.9354 6.83C14.9621 6.85 14.9754 6.88333 14.9754 6.93ZM22.2004 3.48C22.1137 3.58 21.9904 3.68 21.8304 3.78C21.6704 3.87333 21.5104 3.96 21.3504 4.04C21.1904 4.12 21.0504 4.19 20.9304 4.25C20.8104 4.30333 20.7504 4.34 20.7504 4.36C20.7504 4.38 20.7637 4.44 20.7904 4.54C20.8171 4.64 20.8471 4.76 20.8804 4.9C20.9204 5.03333 20.9604 5.17333 21.0004 5.32C21.0404 5.46667 21.0737 5.59667 21.1004 5.71C21.1137 5.77667 21.1304 5.86333 21.1504 5.97C21.1704 6.07667 21.1871 6.18333 21.2004 6.29C21.2204 6.39667 21.2371 6.49333 21.2504 6.58C21.2637 6.66 21.2704 6.70333 21.2704 6.71C21.2704 6.81 21.2537 6.91333 21.2204 7.02C21.1871 7.12667 21.1337 7.18 21.0604 7.18C21.0204 7.18 20.9837 7.16333 20.9504 7.13C20.9171 7.09667 20.8871 7.06 20.8604 7.02C20.8337 6.97333 20.8137 6.93 20.8004 6.89C20.7871 6.85 20.7804 6.82 20.7804 6.8C20.7804 6.78667 20.7804 6.76667 20.7804 6.74C20.7871 6.71333 20.7904 6.68333 20.7904 6.65C20.7904 6.52333 20.7704 6.34 20.7304 6.1C20.7171 6.02667 20.6904 5.91333 20.6504 5.76C20.6104 5.60667 20.5704 5.45 20.5304 5.29C20.4837 5.10333 20.4304 4.9 20.3704 4.68C20.3437 4.58667 20.3271 4.54 20.3204 4.54C20.2737 4.54 20.1937 4.57 20.0804 4.63C19.9737 4.68333 19.8504 4.75333 19.7104 4.84C19.5704 4.92 19.4237 5.01 19.2704 5.11C19.1171 5.20333 18.9737 5.29333 18.8404 5.38C18.7071 5.46 18.5937 5.53 18.5004 5.59C18.4004 5.64333 18.3404 5.67 18.3204 5.67C18.2337 5.67 18.1637 5.64 18.1104 5.58C18.0571 5.52 18.0304 5.45333 18.0304 5.38C18.0304 5.34 18.0871 5.28333 18.2004 5.21C18.3071 5.13 18.4437 5.04333 18.6104 4.95C18.7704 4.85667 18.9471 4.76 19.1404 4.66C19.3271 4.56 19.5004 4.47 19.6604 4.39C19.8271 4.31 19.9637 4.24333 20.0704 4.19C20.1837 4.13667 20.2404 4.11 20.2404 4.11C20.1804 3.80333 20.1304 3.53 20.0904 3.29C20.0571 3.08333 20.0237 2.89333 19.9904 2.72C19.9637 2.54667 19.9504 2.45333 19.9504 2.44C19.9504 2.35333 19.9671 2.29 20.0004 2.25C20.0404 2.20333 20.0837 2.18 20.1304 2.18C20.2037 2.18 20.2504 2.23 20.2704 2.33C20.3437 2.69 20.4104 3.01 20.4704 3.29C20.5371 3.57 20.6004 3.79667 20.6604 3.97C20.7204 3.95667 20.8237 3.92 20.9704 3.86C21.1171 3.79333 21.2704 3.72333 21.4304 3.65C21.5904 3.57667 21.7337 3.51333 21.8604 3.46C21.9937 3.4 22.0704 3.37 22.0904 3.37C22.1304 3.37 22.1537 3.38333 22.1604 3.41C22.1737 3.43667 22.1871 3.46 22.2004 3.48ZM24.5338 5.84C24.5338 5.98667 24.5138 6.12667 24.4738 6.26C24.4338 6.39333 24.3804 6.51 24.3138 6.61C24.2471 6.71 24.1671 6.79 24.0738 6.85C23.9871 6.90333 23.8904 6.93 23.7838 6.93C23.5971 6.93 23.4504 6.87667 23.3438 6.77C23.2371 6.66333 23.1538 6.54 23.0938 6.4C23.0404 6.26 23.0038 6.12 22.9838 5.98C22.9704 5.83333 22.9638 5.72333 22.9638 5.65C22.9638 5.53 22.9804 5.39667 23.0138 5.25C23.0538 5.09667 23.1038 4.95667 23.1638 4.83C23.2304 4.70333 23.3038 4.59667 23.3838 4.51C23.4638 4.42333 23.5471 4.38 23.6338 4.38C23.6538 4.38 23.6838 4.38667 23.7238 4.4C23.7704 4.41333 23.8171 4.43333 23.8638 4.46C23.9104 4.48667 23.9504 4.52 23.9838 4.56C24.0238 4.6 24.0504 4.64667 24.0638 4.7C24.1371 4.70667 24.2104 4.73333 24.2838 4.78C24.3571 4.82667 24.3971 4.86333 24.4038 4.89C24.4571 5.06333 24.4904 5.23667 24.5038 5.41C24.5238 5.58333 24.5338 5.72667 24.5338 5.84ZM24.0838 5.66C24.0838 5.56 24.0738 5.45667 24.0538 5.35C24.0338 5.23667 23.9938 5.12333 23.9338 5.01C23.9204 5.01667 23.9038 5.02 23.8838 5.02C23.8571 5.02 23.8338 5.01667 23.8137 5.01C23.8004 5.00333 23.7871 5 23.7738 5C23.6938 5 23.6304 5.02333 23.5838 5.07C23.5371 5.11 23.5004 5.16667 23.4738 5.24C23.4538 5.30667 23.4404 5.38 23.4338 5.46C23.4271 5.54 23.4238 5.61667 23.4238 5.69C23.4238 5.76333 23.4271 5.84667 23.4338 5.94C23.4404 6.02667 23.4538 6.11 23.4738 6.19C23.5004 6.27 23.5338 6.34 23.5738 6.4C23.6138 6.45333 23.6671 6.48 23.7338 6.48C23.8004 6.48 23.8571 6.44667 23.9038 6.38C23.9504 6.30667 23.9871 6.22333 24.0138 6.13C24.0404 6.03667 24.0571 5.94667 24.0638 5.86C24.0771 5.76667 24.0838 5.7 24.0838 5.66ZM32.8971 5.11C32.8971 5.28333 32.8471 5.45 32.7471 5.61C32.6538 5.77 32.5371 5.92 32.3971 6.06C32.2571 6.19333 32.1038 6.32 31.9371 6.44C31.7704 6.55333 31.6171 6.65333 31.4771 6.74C31.3438 6.83333 31.2338 6.91 31.1471 6.97C31.0604 7.03 31.0171 7.07667 31.0171 7.11C31.0171 7.19667 31.0271 7.32 31.0471 7.48C31.0671 7.63333 31.0904 7.80333 31.1171 7.99C31.1504 8.17 31.1804 8.35667 31.2071 8.55C31.2404 8.74333 31.2638 8.92 31.2771 9.08C31.2771 9.08667 31.2804 9.11667 31.2871 9.17C31.3004 9.22333 31.3138 9.28333 31.3271 9.35C31.3471 9.41667 31.3604 9.47667 31.3671 9.53C31.3804 9.59 31.3871 9.62667 31.3871 9.64C31.3871 9.68667 31.3838 9.73667 31.3771 9.79C31.3771 9.85 31.3671 9.90333 31.3471 9.95C31.3338 10.0033 31.3104 10.0467 31.2771 10.08C31.2438 10.1133 31.2004 10.13 31.1471 10.13C31.0738 10.13 31.0204 10.0967 30.9871 10.03C30.9538 9.97 30.9371 9.91 30.9371 9.85C30.9371 9.83667 30.9371 9.82333 30.9371 9.81C30.9438 9.79667 30.9471 9.78 30.9471 9.76C30.9471 9.68667 30.9204 9.49 30.8671 9.17C30.8138 8.85 30.7538 8.46667 30.6871 8.02C30.6204 7.58 30.5604 7.10667 30.5071 6.6C30.4538 6.08667 30.4271 5.60333 30.4271 5.15C30.4271 5.11667 30.4304 5.08 30.4371 5.04C30.4438 4.99333 30.4471 4.95333 30.4471 4.92C30.3804 4.92667 30.2804 4.95667 30.1471 5.01C30.0204 5.06333 29.8938 5.13 29.7671 5.21C29.6404 5.28333 29.5271 5.36333 29.4271 5.45C29.3338 5.53 29.2871 5.60333 29.2871 5.67H29.2171C29.1971 5.67 29.1738 5.65667 29.1471 5.63C29.1138 5.60333 29.0871 5.57333 29.0671 5.54C29.0404 5.50667 29.0171 5.47333 28.9971 5.44C28.9771 5.40667 28.9671 5.38333 28.9671 5.37C28.9671 5.23 29.0504 5.1 29.2171 4.98C29.3838 4.85333 29.5904 4.74333 29.8371 4.65C30.0904 4.55 30.3671 4.47333 30.6671 4.42C30.9671 4.36 31.2504 4.33 31.5171 4.33C31.7771 4.33 31.9938 4.36 32.1671 4.42C32.3471 4.48 32.4904 4.55333 32.5971 4.64C32.7038 4.72 32.7804 4.80333 32.8271 4.89C32.8738 4.97667 32.8971 5.05 32.8971 5.11ZM32.4071 5.08C32.4071 5.01333 32.3238 4.94667 32.1571 4.88C31.9904 4.80667 31.7938 4.77 31.5671 4.77C31.3671 4.77 31.2204 4.77667 31.1271 4.79C31.0338 4.80333 30.9704 4.81667 30.9371 4.83C30.9238 4.93667 30.9138 5.06333 30.9071 5.21C30.9004 5.35667 30.8971 5.50667 30.8971 5.66C30.8971 5.82 30.9004 5.97667 30.9071 6.13C30.9204 6.27667 30.9338 6.4 30.9471 6.5C31.0404 6.44 31.1671 6.36 31.3271 6.26C31.4938 6.15333 31.6571 6.03667 31.8171 5.91C31.9771 5.77667 32.1138 5.64 32.2271 5.5C32.3471 5.35333 32.4071 5.21333 32.4071 5.08ZM34.7866 7.71C34.7866 7.76333 34.7666 7.80333 34.7266 7.83C34.6866 7.85667 34.64 7.87 34.5866 7.87C34.5266 7.87 34.4633 7.81333 34.3966 7.7C34.3366 7.58667 34.2766 7.44333 34.2166 7.27C34.1566 7.09667 34.1 6.91 34.0466 6.71C33.9933 6.50333 33.9466 6.31333 33.9066 6.14C33.8666 5.96 33.8333 5.81 33.8066 5.69C33.7866 5.57 33.7766 5.50333 33.7766 5.49C33.7766 5.46333 33.7633 5.39333 33.7366 5.28C33.7166 5.16667 33.6866 4.99 33.6466 4.75C33.6133 4.51 33.5733 4.2 33.5266 3.82C33.4866 3.43333 33.4433 2.95667 33.3966 2.39C33.3966 2.33 33.4066 2.25333 33.4266 2.16C33.4466 2.06667 33.4933 2.02 33.5666 2.02C33.66 2.02 33.73 2.08333 33.7766 2.21C33.83 2.33667 33.87 2.49333 33.8966 2.68C33.93 2.86667 33.9533 3.06333 33.9666 3.27C33.98 3.47 33.9966 3.64667 34.0166 3.8C34.0433 4.01333 34.0666 4.20667 34.0866 4.38C34.1133 4.55333 34.1366 4.72667 34.1566 4.9C34.1833 5.06667 34.2133 5.24333 34.2466 5.43C34.2866 5.61667 34.3333 5.82333 34.3866 6.05L34.7866 7.71ZM40.316 5.92C40.316 6.04 40.2593 6.19 40.146 6.37C40.0393 6.54333 39.8927 6.71333 39.706 6.88C39.5193 7.04667 39.3027 7.19 39.056 7.31C38.8093 7.42333 38.5527 7.48 38.286 7.48C38.166 7.48 38.0393 7.46 37.906 7.42C37.7727 7.38 37.6427 7.32333 37.516 7.25C37.3893 7.17 37.276 7.07667 37.176 6.97C37.076 6.85667 37.0027 6.73 36.956 6.59C36.916 6.63 36.866 6.69667 36.806 6.79C36.7527 6.88333 36.6927 6.98 36.626 7.08C36.5593 7.17333 36.486 7.25667 36.406 7.33C36.326 7.39667 36.2427 7.43 36.156 7.43C36.0693 7.43 35.996 7.38667 35.936 7.3C35.8827 7.20667 35.8393 7.10667 35.806 7C35.7727 6.88667 35.7493 6.78 35.736 6.68C35.7227 6.58 35.716 6.52333 35.716 6.51C35.716 6.43 35.7393 6.28 35.786 6.06C35.8327 5.83333 35.9027 5.6 35.996 5.36C36.0893 5.12 36.206 4.90667 36.346 4.72C36.4927 4.53333 36.6627 4.44 36.856 4.44C36.9293 4.44 36.976 4.47333 36.996 4.54C37.0227 4.6 37.036 4.66 37.036 4.72V5.02C37.0693 5.04667 37.1027 5.06667 37.136 5.08C37.176 5.08667 37.2093 5.1 37.236 5.12C37.2693 5.13333 37.2927 5.15667 37.306 5.19C37.326 5.22333 37.336 5.27667 37.336 5.35C37.336 5.39667 37.3327 5.44 37.326 5.48C37.3193 5.51333 37.316 5.54667 37.316 5.58C37.316 5.75333 37.3293 5.92333 37.356 6.09C37.3827 6.25667 37.436 6.40667 37.516 6.54C37.596 6.66667 37.706 6.77333 37.846 6.86C37.986 6.94 38.1727 6.98 38.406 6.98C38.6993 6.98 38.946 6.92 39.146 6.8C39.3527 6.67333 39.5227 6.53667 39.656 6.39C39.796 6.23667 39.906 6.1 39.986 5.98C40.066 5.85333 40.1327 5.79 40.186 5.79C40.2727 5.79 40.316 5.83333 40.316 5.92ZM36.806 5.48C36.806 5.45333 36.7993 5.43 36.786 5.41C36.7727 5.38333 36.766 5.36 36.766 5.34C36.766 5.31333 36.7727 5.29 36.786 5.27C36.7993 5.25 36.806 5.22333 36.806 5.19C36.806 5.17 36.7993 5.15667 36.786 5.15C36.7727 5.13667 36.766 5.12333 36.766 5.11C36.706 5.12333 36.6427 5.18 36.576 5.28C36.516 5.38 36.456 5.49667 36.396 5.63C36.3427 5.76333 36.2993 5.9 36.266 6.04C36.2327 6.17333 36.216 6.28333 36.216 6.37C36.216 6.41667 36.2293 6.49333 36.256 6.6C36.2827 6.70667 36.3127 6.77667 36.346 6.81C36.4593 6.57667 36.5627 6.35 36.656 6.13C36.756 5.91 36.806 5.69333 36.806 5.48ZM42.5291 3.32C42.4424 3.78 42.3624 4.22333 42.2891 4.65C42.2557 4.83 42.2224 5.02 42.1891 5.22C42.1557 5.41333 42.1224 5.60667 42.0891 5.8C42.0624 5.98667 42.0357 6.16667 42.0091 6.34C41.9891 6.50667 41.9724 6.66 41.9591 6.8C41.9324 7.01333 41.9124 7.25667 41.8991 7.53C41.8857 7.80333 41.8724 8.06333 41.8591 8.31C41.8457 8.59667 41.8391 8.88667 41.8391 9.18C41.8391 9.24 41.8324 9.30667 41.8191 9.38C41.8057 9.45333 41.7991 9.52667 41.7991 9.6C41.7991 9.66667 41.7824 9.72333 41.7491 9.77C41.7224 9.81667 41.6791 9.84 41.6191 9.84C41.5657 9.84 41.5224 9.79667 41.4891 9.71C41.4624 9.63 41.4391 9.53333 41.4191 9.42C41.3991 9.31333 41.3857 9.20333 41.3791 9.09C41.3724 8.98333 41.3691 8.90667 41.3691 8.86C41.3691 8.80667 41.3691 8.74 41.3691 8.66C41.3691 8.58667 41.3724 8.47333 41.3791 8.32C41.3924 8.17333 41.4091 7.98 41.4291 7.74C41.4491 7.49333 41.4791 7.17333 41.5191 6.78C41.5191 6.77333 41.4724 6.74 41.3791 6.68C41.2924 6.62 41.1824 6.54667 41.0491 6.46C40.9224 6.36667 40.7891 6.26667 40.6491 6.16C40.5157 6.05333 40.4024 5.95 40.3091 5.85C40.2957 5.83667 40.2757 5.80667 40.2491 5.76C40.2224 5.71333 40.2091 5.65667 40.2091 5.59C40.2091 5.55667 40.2257 5.52333 40.2591 5.49C40.2924 5.45 40.3291 5.43 40.3691 5.43C40.3957 5.43 40.4224 5.44333 40.4491 5.47C40.6024 5.60333 40.7791 5.75333 40.9791 5.92C41.1791 6.08 41.3757 6.22667 41.5691 6.36C41.5824 6.24 41.6091 6.05667 41.6491 5.81C41.6957 5.56333 41.7424 5.3 41.7891 5.02C41.8357 4.73333 41.8791 4.45667 41.9191 4.19C41.9657 3.92333 41.9991 3.71 42.0191 3.55C42.0191 3.52333 42.0257 3.48 42.0391 3.42C42.0524 3.36 42.0724 3.3 42.0991 3.24C42.1257 3.18 42.1557 3.13 42.1891 3.09C42.2224 3.04333 42.2591 3.02 42.2991 3.02C42.3191 3.02 42.3624 3.04 42.4291 3.08C42.4957 3.11333 42.5291 3.19333 42.5291 3.32ZM44.3613 3.17C44.3613 3.23 44.3313 3.36 44.2713 3.56C44.2113 3.76 44.1447 3.98333 44.0713 4.23C44.0047 4.47 43.9413 4.70667 43.8813 4.94C43.828 5.17333 43.8013 5.35667 43.8013 5.49C43.8013 5.63 43.808 5.74667 43.8213 5.84C43.8347 5.92667 43.848 6 43.8613 6.06C43.8813 6.12 43.898 6.17333 43.9113 6.22C43.9247 6.26 43.9313 6.31 43.9313 6.37C43.9313 6.50333 43.8713 6.57 43.7513 6.57C43.7313 6.57 43.7113 6.55667 43.6913 6.53C43.5447 6.31667 43.4547 6.10667 43.4213 5.9C43.3947 5.69333 43.3813 5.53333 43.3813 5.42C43.3813 5.28 43.4013 5.1 43.4413 4.88C43.4813 4.65333 43.5313 4.41667 43.5913 4.17C43.6513 3.91667 43.718 3.66667 43.7913 3.42C43.8713 3.16667 43.948 2.94667 44.0213 2.76C44.0347 2.74667 44.0513 2.73333 44.0713 2.72C44.0913 2.70667 44.118 2.7 44.1513 2.7C44.198 2.7 44.2347 2.72 44.2613 2.76C44.288 2.79333 44.308 2.83667 44.3213 2.89C44.3347 2.93667 44.3447 2.98667 44.3513 3.04C44.358 3.09333 44.3613 3.13667 44.3613 3.17ZM44.6913 7.66C44.6913 7.73333 44.668 7.81 44.6213 7.89C44.5813 7.96333 44.528 8 44.4613 8C44.3747 8 44.2913 7.95667 44.2113 7.87C44.138 7.78333 44.1013 7.68333 44.1013 7.57C44.1013 7.53 44.108 7.48 44.1213 7.42C44.1413 7.35333 44.1847 7.32 44.2513 7.32C44.278 7.32 44.3147 7.32333 44.3613 7.33C44.408 7.33667 44.4547 7.35333 44.5013 7.38C44.5547 7.4 44.598 7.43333 44.6313 7.48C44.6713 7.52667 44.6913 7.58667 44.6913 7.66Z" fill="black"/>
</svg>
